<svg version="1.1" id="Layer_1" xmlns="http://www.w3.org/2000/svg" xmlns:xlink="http://www.w3.org/1999/xlink" x="0px" y="0px"
	 width="100%" viewBox="0 0 1280 1280" enable-background="new 0 0 1280 1280" xml:space="preserve">
<path fill="#EE5A94" opacity="1.000000" stroke="none" 
	d="
M584.000000,1281.000000 
	C389.333344,1281.000000 195.166672,1281.000000 1.000000,1281.000000 
	C1.000000,854.333313 1.000000,427.666656 1.000000,1.000000 
	C427.666656,1.000000 854.333313,1.000000 1281.000000,1.000000 
	C1281.000000,427.666656 1281.000000,854.333313 1281.000000,1281.000000 
	C1048.833374,1281.000000 816.666687,1281.000000 584.000000,1281.000000 
M727.500061,278.418701 
	C708.006531,278.568207 688.508362,278.498932 669.020386,278.910645 
	C621.635620,279.911743 575.035217,286.132599 529.822205,300.897369 
	C496.064850,311.921173 465.019196,328.023743 438.083405,351.394623 
	C401.983826,382.716431 378.939331,422.187988 366.678711,468.087646 
	C348.281219,536.961487 330.143982,605.904785 311.885193,674.815613 
	C290.255829,756.447693 268.557312,838.061584 247.106491,919.740540 
	C245.656235,925.262817 245.063370,931.379700 245.728500,937.024780 
	C248.752258,962.687317 268.331085,980.042480 294.253113,980.236877 
	C323.584717,980.456909 352.934723,979.710144 382.248108,980.477234 
	C415.628235,981.350830 447.988586,954.518005 455.841431,924.172607 
	C464.477325,890.801086 473.851715,857.620422 482.450531,824.239807 
	C483.878174,818.697693 486.376343,817.769409 491.370453,817.775452 
	C589.703186,817.894775 688.036072,817.865417 786.368958,817.866821 
	C793.489990,817.866943 793.492310,817.868835 793.491333,825.002441 
	C793.487183,855.835510 793.956238,886.677795 793.355591,917.499207 
	C792.617310,955.380371 823.887329,981.928711 856.281250,980.559753 
	C883.399658,979.413696 910.609375,979.980103 937.769653,980.388367 
	C968.890381,980.856201 999.159363,953.403503 999.081116,918.978210 
	C998.642334,725.980164 998.707092,532.980408 999.027283,339.981873 
	C999.079651,308.417816 974.534546,277.379059 937.492493,278.053040 
	C867.849243,279.320221 798.166443,278.418976 727.500061,278.418701 
z"/>
<path fill="#FFFEFF" opacity="1.000000" stroke="none" 
	d="
M728.000122,278.419037 
	C798.166443,278.418976 867.849243,279.320221 937.492493,278.053040 
	C974.534546,277.379059 999.079651,308.417816 999.027283,339.981873 
	C998.707092,532.980408 998.642334,725.980164 999.081116,918.978210 
	C999.159363,953.403503 968.890381,980.856201 937.769653,980.388367 
	C910.609375,979.980103 883.399658,979.413696 856.281250,980.559753 
	C823.887329,981.928711 792.617310,955.380371 793.355591,917.499207 
	C793.956238,886.677795 793.487183,855.835510 793.491333,825.002441 
	C793.492310,817.868835 793.489990,817.866943 786.368958,817.866821 
	C688.036072,817.865417 589.703186,817.894775 491.370453,817.775452 
	C486.376343,817.769409 483.878174,818.697693 482.450531,824.239807 
	C473.851715,857.620422 464.477325,890.801086 455.841431,924.172607 
	C447.988586,954.518005 415.628235,981.350830 382.248108,980.477234 
	C352.934723,979.710144 323.584717,980.456909 294.253113,980.236877 
	C268.331085,980.042480 248.752258,962.687317 245.728500,937.024780 
	C245.063370,931.379700 245.656235,925.262817 247.106491,919.740540 
	C268.557312,838.061584 290.255829,756.447693 311.885193,674.815613 
	C330.143982,605.904785 348.281219,536.961487 366.678711,468.087646 
	C378.939331,422.187988 401.983826,382.716431 438.083405,351.394623 
	C465.019196,328.023743 496.064850,311.921173 529.822205,300.897369 
	C575.035217,286.132599 621.635620,279.911743 669.020386,278.910645 
	C688.508362,278.498932 708.006531,278.568207 728.000122,278.419037 
M619.696228,451.187286 
	C592.013306,464.975739 574.009644,487.227203 565.457764,516.484802 
	C553.502014,557.387695 542.750000,598.642517 531.491089,639.748962 
	C530.008972,645.160156 528.574951,650.584595 526.981567,656.512939 
	C529.107605,656.656494 530.546997,656.838623 531.986328,656.838806 
	C617.453979,656.850464 702.921692,656.820129 788.389160,656.925354 
	C792.632751,656.930603 793.726685,655.494751 793.721436,651.449097 
	C793.631897,582.642212 793.637512,513.835022 793.752808,445.028107 
	C793.759949,440.764221 792.653259,439.254700 788.143677,439.274811 
	C750.658630,439.442017 713.172424,439.327454 675.686707,439.386841 
	C656.478638,439.417267 637.906311,442.690521 619.696228,451.187286 
z"/>
<path fill="#EE5B95" opacity="1.000000" stroke="none" 
	d="
M620.031006,451.020264 
	C637.906311,442.690521 656.478638,439.417267 675.686707,439.386841 
	C713.172424,439.327454 750.658630,439.442017 788.143677,439.274811 
	C792.653259,439.254700 793.759949,440.764221 793.752808,445.028107 
	C793.637512,513.835022 793.631897,582.642212 793.721436,651.449097 
	C793.726685,655.494751 792.632751,656.930603 788.389160,656.925354 
	C702.921692,656.820129 617.453979,656.850464 531.986328,656.838806 
	C530.546997,656.838623 529.107605,656.656494 526.981567,656.512939 
	C528.574951,650.584595 530.008972,645.160156 531.491089,639.748962 
	C542.750000,598.642517 553.502014,557.387695 565.457764,516.484802 
	C574.009644,487.227203 592.013306,464.975739 620.031006,451.020264 
z"/>
</svg>